<mxfile host="Electron" agent="Mozilla/5.0 (Windows NT 10.0; Win64; x64) AppleWebKit/537.36 (KHTML, like Gecko) draw.io/25.0.1 Chrome/128.0.6613.186 Electron/32.2.6 Safari/537.36" version="25.0.1">
  <diagram name="Page-1" id="464x6DpDnve7GWDz82oB">
    <mxGraphModel dx="1036" dy="606" grid="1" gridSize="10" guides="1" tooltips="1" connect="1" arrows="1" fold="1" page="1" pageScale="1" pageWidth="850" pageHeight="1100" math="0" shadow="0">
      <root>
        <mxCell id="0" />
        <mxCell id="1" parent="0" />
        <mxCell id="3pfyGu1Bz1Kl3k0oJ5lH-1" value="Kreiranje i brisanje čitalaca" style="ellipse;whiteSpace=wrap;html=1;fontSize=15;" parent="1" vertex="1">
          <mxGeometry x="40" y="240" width="290" height="110" as="geometry" />
        </mxCell>
        <mxCell id="3pfyGu1Bz1Kl3k0oJ5lH-2" value="Kreiranje novog&amp;nbsp;čitaoca " style="ellipse;whiteSpace=wrap;html=1;fontSize=15;" parent="1" vertex="1">
          <mxGeometry x="490" y="140" width="290" height="80" as="geometry" />
        </mxCell>
        <mxCell id="3pfyGu1Bz1Kl3k0oJ5lH-3" value="Brisanje postojećeg čitaoca " style="ellipse;whiteSpace=wrap;html=1;fontSize=15;" parent="1" vertex="1">
          <mxGeometry x="500" y="330" width="280" height="80" as="geometry" />
        </mxCell>
        <mxCell id="3pfyGu1Bz1Kl3k0oJ5lH-4" value="" style="endArrow=classic;html=1;rounded=0;entryX=0;entryY=0.5;entryDx=0;entryDy=0;exitX=0.931;exitY=0.273;exitDx=0;exitDy=0;exitPerimeter=0;fontSize=13;" parent="1" source="3pfyGu1Bz1Kl3k0oJ5lH-1" target="3pfyGu1Bz1Kl3k0oJ5lH-2" edge="1">
          <mxGeometry width="50" height="50" relative="1" as="geometry">
            <mxPoint x="400" y="340" as="sourcePoint" />
            <mxPoint x="450" y="290" as="targetPoint" />
          </mxGeometry>
        </mxCell>
        <mxCell id="3pfyGu1Bz1Kl3k0oJ5lH-5" value="" style="endArrow=classic;html=1;rounded=0;entryX=0;entryY=0.5;entryDx=0;entryDy=0;fontSize=13;" parent="1" source="3pfyGu1Bz1Kl3k0oJ5lH-1" target="3pfyGu1Bz1Kl3k0oJ5lH-3" edge="1">
          <mxGeometry width="50" height="50" relative="1" as="geometry">
            <mxPoint x="320" y="280" as="sourcePoint" />
            <mxPoint x="500" y="190" as="targetPoint" />
          </mxGeometry>
        </mxCell>
      </root>
    </mxGraphModel>
  </diagram>
</mxfile>
